<?xml version="1.0" encoding="utf-8"?>
<!-- Generator: Adobe Illustrator 15.0.2, SVG Export Plug-In . SVG Version: 6.00 Build 0)  -->
<!DOCTYPE svg PUBLIC "-//W3C//DTD SVG 1.1//EN" "http://www.w3.org/Graphics/SVG/1.1/DTD/svg11.dtd">
<svg version="1.1" id="Layer_1" xmlns="http://www.w3.org/2000/svg" xmlns:xlink="http://www.w3.org/1999/xlink" x="0px" y="0px"
	 width="648px" height="108px" viewBox="0 0 648 108" enable-background="new 0 0 648 108" xml:space="preserve">
<g>
	<g>
		<path d="M28.724,30.909c1.391-0.42,2.232-0.84,3.125-1.523c0.971-0.734,1.392-1.233,2.232-2.599l0.367,0.21
			c-0.578,1.681-0.945,2.311-1.786,3.282c-1.706,1.942-4.175,3.02-6.983,3.02c-5.147,0-8.98-3.336-8.98-7.771
			c0-1.471,0.341-2.89,1.05-4.228c0.971-1.839,1.811-2.705,4.227-4.438c-0.683-0.078-0.945-0.078-1.392-0.078
			c-1.655,0-2.966,0.446-3.913,1.418c-0.445,0.421-0.655,0.813-1.076,1.732c-0.053,0.185-0.08,0.211-0.158,0.368l-0.367-0.211
			c0.42-1.574,0.708-2.205,1.417-3.071c1.287-1.602,3.204-2.494,5.488-2.494c1.103,0,2.6,0.211,5.172,0.656
			c2.153,0.368,3.571,0.552,4.305,0.552c1.156,0,1.577-0.264,2.68-1.575l0.341,0.209c-0.264,2.363-1.785,3.624-4.385,3.624
			c-0.446,0-0.683-0.026-1.365-0.105L28.724,30.909L28.724,30.909z M22.659,16.914c-1.549,1.313-2.075,1.969-2.783,3.414
			c-0.552,1.182-0.842,2.441-0.842,3.78c0,1.103,0.29,2.259,0.814,3.283c0.578,1.129,0.973,1.574,2.127,2.441
			c1.076-0.84,1.417-1.365,1.417-2.311V17.02L22.659,16.914z M25.967,17.413v8.797c0,0.892-0.761,1.812-2.677,3.309
			c-0.447,0.341-0.527,0.394-0.816,0.655c1.391,0.71,2.626,1.025,4.149,1.025c0.525,0,0.841-0.027,1.576-0.158V17.808L27.91,17.78
			c-0.604-0.104-1.259-0.209-1.706-0.314L25.967,17.413z"/>
		<path d="M35.03,15.366c0.813,0.209,1.442,0.576,2.126,1.259c0.971-0.971,1.759-1.392,3.177-1.653l0.079,0.262
			c-1.024,0.631-1.602,1.603-1.602,2.679v5.015l4.044-3.177c1.365,0.946,1.97,1.839,1.97,3.046v7.772c0,2.547-2.6,4.726-7.352,6.302
			l-0.08-0.315c1.917-0.867,3.072-1.522,3.73-2.179c0.76-0.788,1.127-1.76,1.127-3.021V23.48c0-0.815-0.289-1.235-1.208-1.785
			L38.81,23.48v7.089l0.92,0.972l-2.206,1.784l-2.232-1.784l0.944-0.919V17.729c0-0.92-0.419-1.601-1.338-2.101L35.03,15.366z"/>
		<path d="M51.992,19.725l3.465,4.095v0.158l-5.619,3.991v2.311l2.941,1.233l2.048-1.363l0.21,0.341L50.94,33.3
			c-1.522-0.841-2.65-1.233-4.358-1.575v-0.288c0.42-0.289,0.684-0.684,0.684-1.104v-8.43l0.578-0.235
			c1.05-0.473,2.547-1.155,3.571-1.653L51.992,19.725z M49.837,21.247v5.882l3.466-2.443l-3.255-3.518L49.837,21.247z"/>
	</g>
	<g>
		<path d="M89.328,15.158c4.049,2.022,6.651,3.083,10.123,3.854c3.855,0.868,5.977,1.157,11.183,1.157l0.674,1.544l-5.88,5.592
			c0,0,0,0.097-0.097,0.097c-1.06,1.156-1.734,1.542-2.411,1.542c-2.891,0-10.796-2.603-16.869-5.688v53.508h2.602
			c3.857,0,7.615-0.578,11.183-1.834c5.11-1.832,7.616-3.47,13.111-8.481l0.674,1.06c-2.891,4.727-4.242,6.46-7.519,9.258
			c-6.555,5.494-14.46,8.291-23.234,8.291c-18.413,0-32.584-14.076-32.584-32.49c0-12.63,8.483-24.873,21.979-32.007l0.87,1.445
			c-4.725,3.277-6.459,4.917-9.064,8.194c-3.953,5.109-5.977,10.894-5.977,16.968c0,3.566,0.771,7.521,2.219,11.185
			c1.253,3.182,2.024,4.436,4.433,7.229c3.279-2.604,4.146-4.34,4.146-7.616V32.123L89.328,15.158z M84.121,22.677l-5.784,4.821
			v23.523c0,3.372-1.06,5.396-4.433,8.771c-1.737,1.735-4.725,4.532-7.327,6.749L65.9,67.119c3.472,3.855,6.652,6.072,11.569,7.904
			c2.219,0.771,3.568,1.158,6.652,1.641V22.677z"/>
		<path d="M122.823,34.92l8.292,6.652l-3.471,3.375v26.415c0,1.93,1.735,4.146,4.628,5.979l0.193-0.192
			c0.192-0.191,0.578-0.48,1.06-0.771c3.664-2.99,5.399-4.146,7.23-5.303V44.947l-3.373-3.375l8.097-6.652l8.194,6.749l-3.47,3.375
			v27.86c0,1.156,0.482,2.697,1.349,3.568c0.386,0.479,0.964,0.771,1.446,0.771c0.578,0,1.446-0.578,2.411-1.542l0.868,1.445
			l-9.642,7.809c-4.916-3.471-6.169-5.592-6.169-10.412v-1.445c-3.277,2.217-5.785,4.146-9.736,7.521
			c-2.026,1.641-2.797,2.409-4.917,4.339c-4.917-3.184-7.616-7.326-7.616-11.665V46.875c0-1.928-0.966-3.278-2.315-3.278
			c-0.482,0-0.771,0.096-1.831,0.964l-0.482,0.387l-1.06-1.255L122.823,34.92z"/>
		<path d="M167.075,34.92c5.302,3.857,6.362,5.785,6.362,11.666l1.157-1.157c3.086-2.989,8.193-7.714,11.183-10.315
			c7.23,5.303,9.64,8.482,9.64,13.11v26.801c-3.566,1.832-5.881,3.279-8.965,5.688c-1.638,1.352-2.605,2.219-4.821,4.243
			l-0.578-0.192c-3.761-2.121-5.688-3.088-7.423-3.666v6.943c0,3.662,1.831,6.846,5.303,9.352l-0.386,0.963
			c-4.917-1.444-8.292-3.469-11.087-6.748c-1.831,1.734-3.857,2.99-6.363,3.953l-0.385-0.674c2.216-2.412,3.469-5.207,3.469-7.715
			V78.4c-2.12-0.387-3.565-0.481-5.591-0.578l-0.771-0.098v-3.472c1.253-0.386,3.182-0.771,5.591-1.155L164.181,73V47.453
			c0-1.542-0.578-2.797-1.542-3.762c-0.578-0.674-1.156-1.06-1.734-1.06c-0.675,0-1.157,0.289-2.219,1.349l-0.964-1.252
			L167.075,34.92z M185.97,48.706c0-1.542-1.445-2.987-5.977-6.17l-6.363,6.072v24.393c4.339,0.674,8.386,1.83,12.34,3.567V48.706
			L185.97,48.706z"/>
		<path d="M198.007,19.012c2.795,0.964,5.204,2.412,7.712,4.628c4.337-4.049,7.328-5.495,11.761-5.88l0.193,0.963
			c-3.953,2.123-5.881,5.304-5.881,9.835V46.78l15.135-11.57c4.435,2.988,6.844,6.556,6.844,10.317v30.85l-1.638,0.675
			c-7.038,3.084-9.738,4.722-13.304,7.904c-2.797-2.312-4.82-3.567-7.712-4.917c-3.761-1.831-6.073-2.506-11.858-3.662v-0.773
			c1.927-1.349,3.084-3.662,3.084-6.267V28.269c0-3.183-1.542-5.881-4.821-8.293L198.007,19.012z M224.325,47.26
			c0-1.638-1.736-3.76-4.05-5.109l-8.482,6.651v23.524l1.254,0.48c1.059,0.387,2.697,0.965,4.916,1.832
			c2.312,0.865,3.951,1.545,5.014,1.93l1.349,0.48L224.325,47.26L224.325,47.26z"/>
		<path d="M240.031,43.114c3.472-1.253,4.821-1.927,7.614-3.373c2.799-1.448,4.052-2.315,7.135-4.628
			c2.894,1.734,5.11,2.795,8.389,4.146c3.277,1.351,4.628,1.735,8.194,2.603v34.9l-1.831,0.674
			c-6.556,2.795-9.449,4.436-13.111,7.521l-1.544-0.867c-5.107-3.086-7.904-4.436-11.181-5.398
			c-2.026-0.578-3.087-0.771-5.881-0.963l-0.482-0.676c1.734-1.447,2.698-3.277,2.698-5.592V43.114L240.031,43.114z M261.916,47.549
			c-4.82-2.505-8.967-3.953-12.436-4.628v29.405l12.436,5.303V47.549z"/>
		<path d="M280.043,39.163c0.771,0.096,1.35,0.096,1.641,0.096c5.107,0,7.326-0.965,10.988-4.242
			c4.725,2.409,10.896,4.435,13.595,4.435c1.156,0,2.12-0.771,3.373-2.508l1.351,0.579c-2.408,3.857-3.662,6.941-3.662,9.063v25.354
			c0,2.506,1.349,4.821,2.891,4.821c0.578,0,1.253-0.288,2.604-1.352c0.097-0.097,0.289-0.193,0.386-0.289l0.192-0.193l0.866,1.257
			l-0.48,0.48c-0.578,0.48-1.351,1.061-2.219,1.831c-4.818,4.241-6.557,5.592-7.712,6.17c-4.339-3.183-5.785-5.978-5.881-11.185
			l-14.268,11.474c-5.592-4.146-8.193-8.388-8.193-13.207c0-3.279,1.156-6.748,3.373-10.606c1.734-2.986,2.989-4.627,6.459-8.579
			l-5.688-12.146L280.043,39.163z M281.491,40.705l5.782,12.34l10.604,5.014v-12.34L281.491,40.705z M286.31,54.298
			c-1.542,3.278-2.603,7.134-2.603,9.642c0,5.688,2.409,10.121,7.037,13.306l7.134-5.784V59.793L286.31,54.298z"/>
		<path d="M324.693,34.92c4.725,3.471,6.361,5.785,6.459,9.447l10.509-9.447l6.845,8.58l-2.408,2.315
			c-2.699,2.409-3.277,2.891-3.953,2.891c-0.771,0-1.734-0.964-3.856-3.662c-0.386-0.581-1.062-1.352-1.733-2.219l-0.771-0.771
			l-4.628,4.242v27.669l5.397,3.953l4.629-3.761l1.061,1.155l-11.857,9.643c-4.628-4.242-7.903-6.268-11.954-7.326l-0.097-0.771
			c2.411-1.735,3.375-3.664,3.375-6.556V47.357c0-2.605-1.253-4.628-2.894-4.628c-0.867,0-1.542,0.48-2.795,1.927l-1.061-1.253
			L324.693,34.92z"/>
		<path d="M348.025,18.82l32.201,22.27c1.155-2.508,2.312-3.664,4.338-4.146v1.445c-0.965,1.062-1.446,2.797-1.446,4.628v33.647
			c-3.47,1.253-5.784,2.217-8.675,3.854c-2.604,1.448-3.762,2.219-6.363,4.438c-4.628-2.893-7.326-4.339-10.604-5.495
			c-2.893-1.062-4.342-1.351-8.291-1.928v-0.867c0.867-0.479,1.445-1.254,2.023-2.797c0.289-0.771,0.578-1.542,0.578-1.831V43.114
			c3.953-1.156,6.459-2.313,9.256-4.146l-13.018-9.062V18.82L348.025,18.82z M364.029,40.994l-2.795,2.023v29.116l12.438,5.495
			V47.646L364.029,40.994z"/>
	</g>
</g>
<g enable-background="new    ">
	<path fill="#6E9C40" d="M433.835,47.989c0.096,0.415-0.16,0.639-1.595,0.639c-0.479,0-1.116,0-2.041-0.064l-1.053-5.103h-4.306
		l-0.926,4.497c-0.095,0.446-0.19,0.67-1.626,0.67c-0.445,0-1.403-0.032-2.231-0.128l5.325-21.653
		c0.097-0.478,0.605-0.669,1.436-0.669c0.605,0,1.244,0.032,1.689,0.127L433.835,47.989z M428.478,40.272l-0.639-2.998
		c-0.351-1.722-0.637-4.05-0.829-6.026c-0.223,1.977-0.51,4.305-0.859,6.026l-0.639,2.998H428.478z"/>
	<path fill="#6E9C40" d="M434.979,33.352c1.243-0.573,2.997-1.051,4.911-1.051c1.181,0,2.04,0.286,2.68,0.828
		c1.115-0.51,2.519-0.828,3.763-0.828c3.253,0,3.604,1.594,3.604,4.337v11.288c0,0.638-0.127,0.638-3.539,0.638V36.733
		c0-1.021-0.19-1.34-0.956-1.34c-0.447,0-0.861,0.095-1.213,0.287v4.655V40.4v7.558c0,0.574,0.032,0.606-2.869,0.606h-0.671V36.573
		c0-1.053-0.158-1.244-0.925-1.244c-0.414,0-0.859,0.159-1.243,0.383v12.213c0,0.638-0.096,0.638-3.539,0.638V33.352H434.979z"/>
	<path fill="#6E9C40" d="M460.997,44.546c0.191,0.637,0.287,1.626,0.287,2.359c0,1.276-2.04,1.978-4.528,1.978
		c-2.9,0-4.941-1.468-4.941-7.527c0-7.717,2.646-9.055,5.611-9.055c2.551,0,4.082,1.499,4.082,5.198c0,1.53-0.128,3.284-0.446,4.527
		c-1.562,0.32-3.954,0.415-5.549,0.447c0.127,2.073,0.573,2.965,2.104,2.965C458.766,45.438,459.882,45.087,460.997,44.546z
		 M455.513,39.699c0.894,0,1.913-0.064,2.392-0.287c0.128-0.383,0.16-1.148,0.16-1.658c0-2.041-0.287-2.392-1.084-2.392
		C455.99,35.362,455.607,36.764,455.513,39.699z"/>
	<path fill="#6E9C40" d="M463.227,33.735c1.148-0.766,2.68-1.434,4.434-1.434c1.723,0,2.137,0.51,2.137,1.594
		c0,0.415-0.062,1.243-0.351,2.041c-0.447-0.223-0.861-0.255-1.182-0.255c-0.383,0-0.956,0.16-1.434,0.51v11.735
		c0,0.638,0,0.638-3.604,0.638V33.735z"/>
	<path fill="#6E9C40" d="M473.11,26.113c1.308,0,1.689,0.606,1.658,2.328c0,1.69-0.639,2.71-1.883,2.71
		c-1.053,0-1.721-0.574-1.721-2.551C471.166,27.134,471.771,26.113,473.11,26.113z M474.77,47.926c0,0.638-0.031,0.638-3.604,0.638
		V34.182c0-1.562,0.7-1.562,3.604-1.562V47.926z"/>
	<path fill="#6E9C40" d="M484.493,35.808c-0.511-0.223-1.339-0.415-2.009-0.415c-1.148,0-2.297,0.605-2.297,5.485
		c0,3.699,0.479,4.879,2.169,4.879c0.67,0,1.529-0.191,2.041-0.446c0.189,0.765,0.286,1.307,0.286,1.849
		c0,1.053-1.436,1.723-3.477,1.723c-3.253,0-4.72-1.34-4.72-7.941c0-7.653,3.028-8.642,5.678-8.642c1.562,0,2.646,0.605,2.646,1.626
		C484.812,34.405,484.748,35.075,484.493,35.808z"/>
	<path fill="#6E9C40" d="M495.078,37.689c0,3.667,0,7.813-0.159,10.174c-1.084,0.637-2.68,1.021-4.592,1.021
		c-2.36,0-4.528-0.542-4.528-4.976c0-4.368,1.817-5.261,3.699-5.261c0.478,0,1.466,0.095,2.04,0.478v-2.201
		c0-0.861-0.351-1.211-1.34-1.211c-1.211,0-2.807,0.286-3.857,0.67c-0.383-0.734-0.479-1.531-0.479-2.041
		c0-0.384,0.16-0.894,0.446-1.117c0.447-0.351,2.2-0.924,4.752-0.924c2.935,0,4.019,1.02,4.019,3.89L495.078,37.689L495.078,37.689z
		 M490.709,41.229c-0.733,0-1.18,0.51-1.18,2.583c0,1.563,0.256,2.168,1.053,2.168c0.318,0,0.701-0.096,0.893-0.318
		c0.063-0.734,0.063-2.806,0.063-4.146C491.315,41.325,490.964,41.229,490.709,41.229z"/>
	<path fill="#6E9C40" d="M497.021,33.352c1.021-0.478,3.348-1.051,4.941-1.051c3.252,0,4.592,0.924,4.592,4.113v11.512
		c0,0.638-0.095,0.638-3.667,0.638V37.529c0-1.689-0.159-2.2-1.052-2.2c-0.447,0-0.894,0.128-1.276,0.383v12.213
		c0,0.638-0.062,0.638-3.538,0.638V33.352z"/>
	<path fill="#6E9C40" d="M523.104,47.894c-1.021,0.67-2.552,0.958-4.399,0.958c-4.784,0-6.061-2.168-6.061-10.715
		c0-10.269,2.583-12.183,7.017-12.183c2.296,0,3.477,0.861,3.477,1.818c0,0.829-0.225,1.531-0.447,2.169
		c-0.479-0.383-1.435-0.638-2.264-0.638c-3.222,0-3.954,2.392-3.954,8.546c0,6.538,0.573,7.558,2.296,7.558
		c0.67,0,0.926-0.16,1.054-0.319v-7.143h-1.5v-2.296c0-0.415,0.255-0.638,0.766-0.638h4.019v12.883H523.104z"/>
	<path fill="#6E9C40" d="M528.395,47.926c0,0.638,0,0.638-3.539,0.638V26.688c0-1.562,0.67-1.562,3.539-1.562V47.926z"/>
	<path fill="#6E9C40" d="M539.395,37.689c0,3.667,0,7.813-0.159,10.174c-1.083,0.637-2.679,1.021-4.593,1.021
		c-2.358,0-4.526-0.542-4.526-4.976c0-4.368,1.817-5.261,3.699-5.261c0.478,0,1.467,0.095,2.04,0.478v-2.201
		c0-0.861-0.352-1.211-1.34-1.211c-1.212,0-2.806,0.286-3.857,0.67c-0.383-0.734-0.479-1.531-0.479-2.041
		c0-0.384,0.159-0.894,0.446-1.117c0.446-0.351,2.2-0.924,4.752-0.924c2.935,0,4.019,1.02,4.019,3.89L539.395,37.689L539.395,37.689
		z M535.026,41.229c-0.734,0-1.182,0.51-1.182,2.583c0,1.563,0.256,2.168,1.052,2.168c0.319,0,0.702-0.096,0.896-0.318
		c0.062-0.734,0.062-2.806,0.062-4.146C535.632,41.325,535.281,41.229,535.026,41.229z"/>
	<path fill="#6E9C40" d="M542.422,39.635c-1.147-1.18-1.562-2.456-1.562-3.381c0-2.232,1.339-3.953,5.262-3.953
		c3.571,0,3.923,1.211,3.923,2.009c0,0.542-0.255,1.211-0.67,1.689c-0.893-0.478-1.786-0.669-2.775-0.669
		c-1.021,0-1.529,0.351-1.529,0.988c0,0.351,0.096,0.733,0.957,1.595l2.358,2.392c1.275,1.466,1.595,2.391,1.595,3.986
		c0,2.87-2.072,4.592-5.324,4.592c-2.073,0-3.765-0.447-3.765-1.882c0-0.51,0.16-1.211,0.574-1.977
		c0.894,0.478,1.882,0.701,2.807,0.701c1.116,0,1.658-0.542,1.658-1.371c0-0.447-0.097-1.053-0.732-1.786L542.422,39.635z"/>
	<path fill="#6E9C40" d="M552.591,39.635c-1.147-1.18-1.562-2.456-1.562-3.381c0-2.232,1.34-3.953,5.262-3.953
		c3.571,0,3.922,1.211,3.922,2.009c0,0.542-0.255,1.211-0.669,1.689c-0.893-0.478-1.785-0.669-2.772-0.669
		c-1.021,0-1.531,0.351-1.531,0.988c0,0.351,0.096,0.733,0.956,1.595l2.359,2.392c1.275,1.466,1.595,2.391,1.595,3.986
		c0,2.87-2.072,4.592-5.325,4.592c-2.073,0-3.764-0.447-3.764-1.882c0-0.51,0.159-1.211,0.574-1.977
		c0.894,0.478,1.881,0.701,2.808,0.701c1.114,0,1.657-0.542,1.657-1.371c0-0.447-0.096-1.053-0.733-1.786L552.591,39.635z"/>
	<path fill="#6E9C40" d="M569.713,26.241c4.02,0,6.218,1.371,6.218,6.569c0,5.739-3.062,7.144-6.059,7.144h-0.255v7.972
		c0,0.638-0.032,0.638-3.539,0.638V26.879c0-0.447,0.095-0.638,0.637-0.638h0.255H569.713z M570.286,36.668
		c1.021,0,1.659-0.733,1.659-4.305c0-2.041-0.415-3.062-1.437-3.062h-0.893v7.366L570.286,36.668L570.286,36.668z"/>
	<path fill="#6E9C40" d="M579.245,26.113c1.307,0,1.688,0.606,1.657,2.328c0,1.69-0.638,2.71-1.881,2.71
		c-1.053,0-1.723-0.574-1.723-2.551C577.3,27.134,577.905,26.113,579.245,26.113z M580.902,47.926c0,0.638-0.031,0.638-3.604,0.638
		V34.182c0-1.562,0.701-1.562,3.604-1.562V47.926z"/>
	<path fill="#6E9C40" d="M583.039,33.544c1.243-0.765,3.029-1.243,4.72-1.243c3.028,0,5.134,1.243,5.134,6.473
		c0,8.546-1.882,10.109-4.178,10.109c-0.956,0-1.627-0.192-2.137-0.607v6.283c-0.51,0.191-1.243,0.287-1.818,0.287
		c-1.243,0-1.721-0.32-1.721-1.562V33.544L583.039,33.544z M586.578,45.152c0.318,0.446,0.573,0.605,0.925,0.605
		c0.701,0,1.435-0.67,1.435-6.76c0-3.094-0.413-3.667-1.37-3.667c-0.352,0-0.701,0.159-0.988,0.383L586.578,45.152L586.578,45.152z"
		/>
	<path fill="#6E9C40" d="M603.382,44.546c0.191,0.637,0.287,1.626,0.287,2.359c0,1.276-2.041,1.978-4.529,1.978
		c-2.9,0-4.941-1.468-4.941-7.527c0-7.717,2.646-9.055,5.611-9.055c2.553,0,4.082,1.499,4.082,5.198c0,1.53-0.127,3.284-0.445,4.527
		c-1.562,0.32-3.954,0.415-5.55,0.447c0.129,2.073,0.574,2.965,2.105,2.965C601.148,45.438,602.266,45.087,603.382,44.546z
		 M597.896,39.699c0.893,0,1.912-0.064,2.392-0.287c0.128-0.383,0.159-1.148,0.159-1.658c0-2.041-0.287-2.392-1.084-2.392
		C598.375,35.362,597.992,36.764,597.896,39.699z"/>
	<path fill="#6E9C40" d="M606.695,39.635c-1.148-1.18-1.563-2.456-1.563-3.381c0-2.232,1.34-3.953,5.263-3.953
		c3.571,0,3.923,1.211,3.923,2.009c0,0.542-0.255,1.211-0.669,1.689c-0.894-0.478-1.786-0.669-2.774-0.669
		c-1.021,0-1.53,0.351-1.53,0.988c0,0.351,0.096,0.733,0.956,1.595l2.36,2.392c1.274,1.466,1.594,2.391,1.594,3.986
		c0,2.87-2.073,4.592-5.325,4.592c-2.073,0-3.764-0.447-3.764-1.882c0-0.51,0.16-1.211,0.574-1.977
		c0.894,0.478,1.882,0.701,2.807,0.701c1.116,0,1.658-0.542,1.658-1.371c0-0.447-0.096-1.053-0.734-1.786L606.695,39.635z"/>
</g>
<g enable-background="new    ">
	<path fill="#6E9C40" d="M429.912,69.18c0,3.668,0,7.813-0.159,10.174c-1.085,0.638-2.68,1.021-4.592,1.021
		c-2.36,0-4.529-0.542-4.529-4.977c0-4.367,1.818-5.262,3.699-5.262c0.479,0,1.467,0.096,2.041,0.479v-2.2
		c0-0.861-0.352-1.212-1.34-1.212c-1.211,0-2.808,0.286-3.857,0.67c-0.383-0.733-0.479-1.53-0.479-2.041
		c0-0.384,0.16-0.894,0.446-1.116c0.446-0.351,2.2-0.925,4.752-0.925c2.935,0,4.019,1.021,4.019,3.892L429.912,69.18L429.912,69.18z
		 M425.543,72.721c-0.733,0-1.18,0.51-1.18,2.582c0,1.562,0.255,2.17,1.053,2.17c0.318,0,0.701-0.097,0.892-0.318
		c0.064-0.734,0.064-2.807,0.064-4.146C426.149,72.814,425.798,72.721,425.543,72.721z"/>
	<path fill="#6E9C40" d="M431.855,64.843c1.021-0.478,3.348-1.052,4.941-1.052c3.252,0,4.592,0.925,4.592,4.113v11.513
		c0,0.638-0.096,0.638-3.667,0.638V69.021c0-1.689-0.158-2.201-1.053-2.201c-0.447,0-0.893,0.129-1.275,0.384v12.214
		c0,0.639-0.062,0.639-3.538,0.639V64.843z"/>
	<path fill="#6E9C40" d="M449.582,58.178c0-1.562,0.605-1.562,3.54-1.562v22.801c-1.084,0.478-2.583,0.957-4.655,0.957
		c-2.711,0-5.167-0.798-5.167-7.56c0-6.537,1.913-9.023,4.401-9.023c0.861,0,1.499,0.256,1.881,0.574V58.178L449.582,58.178z
		 M449.582,66.979c-0.191-0.127-0.446-0.158-0.701-0.158c-0.639,0-1.595,0.287-1.595,5.549c0,3.826,0.383,4.879,1.212,4.879
		c0.446,0,0.797-0.096,1.084-0.318V66.979L449.582,66.979z"/>
	<path fill="#6E9C40" d="M460.899,66.979c-1.468-1.943-1.817-3.283-1.817-4.688c0-2.87,1.913-4.88,5.677-4.88
		c3.222,0,4.337,0.67,4.337,1.786c0,0.605-0.224,1.308-0.83,1.978c-0.35-0.255-1.562-0.638-2.772-0.638
		c-1.563,0-2.552,0.511-2.552,1.658c0,0.988,0.317,1.689,1.181,2.839l3.062,3.922c1.53,1.978,1.913,3.38,1.913,5.196
		c0,3.189-1.18,6.221-5.805,6.221c-2.869,0-4.177-1.021-4.177-2.139c0-0.7,0.255-1.721,0.797-2.551
		c0.67,0.606,1.816,1.053,2.967,1.053c1.785,0,2.358-0.955,2.358-2.486c0-1.085-0.318-1.914-1.436-3.413L460.899,66.979z"/>
	<path fill="#6E9C40" d="M470.623,64.843c1.243-0.573,2.997-1.052,4.91-1.052c1.181,0,2.041,0.286,2.679,0.829
		c1.117-0.511,2.521-0.829,3.764-0.829c3.253,0,3.604,1.595,3.604,4.337v11.289c0,0.638-0.127,0.638-3.54,0.638v-11.83
		c0-1.021-0.19-1.341-0.956-1.341c-0.447,0-0.862,0.097-1.212,0.287v4.655v0.064v7.559c0,0.572,0.031,0.605-2.87,0.605h-0.67v-11.99
		c0-1.053-0.159-1.244-0.925-1.244c-0.414,0-0.861,0.158-1.243,0.383v12.214c0,0.638-0.096,0.638-3.54,0.638L470.623,64.843
		L470.623,64.843z"/>
	<path fill="#6E9C40" d="M492.75,63.791c3.413,0,4.976,1.689,4.976,8.132c0,6.155-1.785,8.451-5.229,8.451
		c-3.443,0-5.038-1.181-5.038-8.323C487.457,66.277,489.37,63.791,492.75,63.791z M492.591,77.439c0.638,0,1.244-0.512,1.244-5.422
		c0-4.592-0.256-5.293-1.212-5.293c-0.702,0-1.275,0.765-1.275,5.293C491.348,76.993,491.794,77.439,492.591,77.439z"/>
	<path fill="#6E9C40" d="M499.413,58.178c0-1.562,0.669-1.562,3.571-1.562v8.1c0.893-0.511,2.072-0.925,3.412-0.925
		c2.168,0,2.646,1.467,2.646,2.71c0,2.394-1.148,4.05-1.881,4.815c1.658,1.211,2.296,3.445,2.328,6.026
		c0,0.702-0.032,1.437-0.097,2.169c-0.063,0.543-0.097,0.543-4.051,0.543c0.096-1.086,0.16-2.231,0.16-3.253
		c0-2.456-0.383-4.019-1.627-3.796c-0.51,0.096-0.893,0.447-0.893,0.447v5.963c0,0.639,0.031,0.639-3.571,0.639V58.178H499.413z
		 M502.984,71.094c1.339-0.766,2.072-1.689,2.072-3.253c0-0.573-0.191-0.893-0.639-0.893c-0.573,0-1.021,0.351-1.435,0.925
		L502.984,71.094L502.984,71.094z"/>
	<path fill="#6E9C40" d="M519.373,76.037c0.191,0.637,0.287,1.626,0.287,2.359c0,1.274-2.041,1.978-4.528,1.978
		c-2.901,0-4.942-1.468-4.942-7.526c0-7.718,2.646-9.057,5.612-9.057c2.551,0,4.081,1.499,4.081,5.198
		c0,1.53-0.127,3.284-0.446,4.526c-1.562,0.319-3.952,0.416-5.549,0.447c0.128,2.073,0.575,2.965,2.105,2.965
		C517.141,76.93,518.257,76.578,519.373,76.037z M513.888,71.189c0.895,0,1.914-0.063,2.393-0.287
		c0.128-0.383,0.16-1.147,0.16-1.658c0-2.041-0.287-2.393-1.085-2.393C514.366,66.854,513.983,68.255,513.888,71.189z"/>
	<path fill="#6E9C40" d="M538.885,79.48c0.098,0.414-0.158,0.639-1.594,0.639c-0.479,0-1.115,0-2.041-0.064l-1.053-5.103h-4.306
		l-0.925,4.497c-0.096,0.445-0.189,0.67-1.626,0.67c-0.446,0-1.402-0.032-2.231-0.129l5.326-21.652
		c0.095-0.479,0.604-0.67,1.435-0.67c0.606,0,1.244,0.031,1.688,0.128L538.885,79.48z M533.527,71.764l-0.638-2.998
		c-0.352-1.722-0.639-4.05-0.829-6.025c-0.223,1.977-0.511,4.305-0.86,6.025l-0.639,2.998H533.527z"/>
	<path fill="#6E9C40" d="M547.62,67.299c-0.51-0.223-1.339-0.415-2.009-0.415c-1.147,0-2.296,0.605-2.296,5.485
		c0,3.699,0.479,4.879,2.169,4.879c0.67,0,1.529-0.189,2.04-0.445c0.19,0.766,0.288,1.307,0.288,1.85
		c0,1.053-1.437,1.723-3.478,1.723c-3.253,0-4.72-1.34-4.72-7.939c0-7.654,3.029-8.644,5.677-8.644c1.562,0,2.646,0.606,2.646,1.627
		C547.939,65.896,547.875,66.564,547.62,67.299z"/>
	<path fill="#6E9C40" d="M556.61,67.299c-0.511-0.223-1.339-0.415-2.01-0.415c-1.146,0-2.296,0.605-2.296,5.485
		c0,3.699,0.479,4.879,2.169,4.879c0.67,0,1.53-0.189,2.04-0.445c0.192,0.766,0.288,1.307,0.288,1.85
		c0,1.053-1.436,1.723-3.477,1.723c-3.252,0-4.72-1.34-4.72-7.939c0-7.654,3.028-8.644,5.676-8.644c1.562,0,2.646,0.606,2.646,1.627
		C556.93,65.896,556.865,66.564,556.61,67.299z"/>
	<path fill="#6E9C40" d="M566.782,76.037c0.19,0.637,0.287,1.626,0.287,2.359c0,1.274-2.041,1.978-4.529,1.978
		c-2.901,0-4.942-1.468-4.942-7.526c0-7.718,2.646-9.057,5.612-9.057c2.552,0,4.082,1.499,4.082,5.198
		c0,1.53-0.127,3.284-0.447,4.526c-1.562,0.319-3.953,0.416-5.548,0.447c0.128,2.073,0.574,2.965,2.105,2.965
		C564.549,76.93,565.666,76.578,566.782,76.037z M561.297,71.189c0.894,0,1.913-0.063,2.393-0.287
		c0.128-0.383,0.158-1.147,0.158-1.658c0-2.041-0.287-2.393-1.084-2.393C561.775,66.854,561.393,68.255,561.297,71.189z"/>
	<path fill="#6E9C40" d="M570.096,71.126c-1.147-1.181-1.562-2.456-1.562-3.381c0-2.231,1.34-3.954,5.263-3.954
		c3.571,0,3.922,1.212,3.922,2.009c0,0.543-0.255,1.212-0.669,1.689c-0.894-0.478-1.786-0.669-2.773-0.669
		c-1.021,0-1.53,0.351-1.53,0.988c0,0.351,0.095,0.732,0.956,1.596l2.359,2.392c1.275,1.466,1.595,2.392,1.595,3.986
		c0,2.868-2.073,4.592-5.325,4.592c-2.073,0-3.764-0.447-3.764-1.882c0-0.512,0.159-1.213,0.573-1.979
		c0.895,0.479,1.882,0.701,2.808,0.701c1.115,0,1.658-0.542,1.658-1.371c0-0.445-0.097-1.052-0.734-1.785L570.096,71.126z"/>
	<path fill="#6E9C40" d="M580.266,71.126c-1.147-1.181-1.562-2.456-1.562-3.381c0-2.231,1.34-3.954,5.262-3.954
		c3.571,0,3.922,1.212,3.922,2.009c0,0.543-0.255,1.212-0.669,1.689c-0.893-0.478-1.785-0.669-2.772-0.669
		c-1.021,0-1.531,0.351-1.531,0.988c0,0.351,0.096,0.732,0.956,1.596l2.359,2.392c1.276,1.466,1.596,2.392,1.596,3.986
		c0,2.868-2.073,4.592-5.326,4.592c-2.072,0-3.763-0.447-3.763-1.882c0-0.512,0.158-1.213,0.573-1.979
		c0.894,0.479,1.881,0.701,2.808,0.701c1.114,0,1.658-0.542,1.658-1.371c0-0.445-0.097-1.052-0.734-1.785L580.266,71.126z"/>
	<path fill="#6E9C40" d="M594.23,63.791c3.411,0,4.974,1.689,4.974,8.132c0,6.155-1.785,8.451-5.229,8.451s-5.039-1.181-5.039-8.323
		C588.938,66.277,590.85,63.791,594.23,63.791z M594.071,77.439c0.638,0,1.243-0.512,1.243-5.422c0-4.592-0.256-5.293-1.214-5.293
		c-0.699,0-1.274,0.765-1.274,5.293C592.826,76.993,593.273,77.439,594.071,77.439z"/>
	<path fill="#6E9C40" d="M600.256,65.227c1.148-0.767,2.679-1.436,4.434-1.436c1.722,0,2.136,0.511,2.136,1.595
		c0,0.414-0.062,1.243-0.352,2.041c-0.444-0.224-0.859-0.256-1.18-0.256c-0.383,0-0.956,0.16-1.436,0.511v11.735
		c0,0.638,0,0.638-3.604,0.638L600.256,65.227L600.256,65.227z"/>
	<path fill="#6E9C40" d="M610.14,57.604c1.308,0,1.689,0.605,1.657,2.328c0,1.69-0.637,2.711-1.881,2.711
		c-1.052,0-1.722-0.574-1.722-2.552C608.194,58.625,608.8,57.604,610.14,57.604z M611.797,79.417c0,0.638-0.031,0.638-3.603,0.638
		V65.673c0-1.563,0.7-1.563,3.603-1.563V79.417z"/>
	<path fill="#6E9C40" d="M622.703,76.037c0.189,0.637,0.287,1.626,0.287,2.359c0,1.274-2.041,1.978-4.529,1.978
		c-2.901,0-4.942-1.468-4.942-7.526c0-7.718,2.646-9.057,5.612-9.057c2.552,0,4.082,1.499,4.082,5.198
		c0,1.53-0.127,3.284-0.445,4.526c-1.562,0.319-3.956,0.416-5.55,0.447c0.128,2.073,0.573,2.965,2.104,2.965
		C620.471,76.93,621.587,76.578,622.703,76.037z M617.218,71.189c0.894,0,1.913-0.063,2.393-0.287
		c0.128-0.383,0.159-1.147,0.159-1.658c0-2.041-0.287-2.393-1.084-2.393C617.696,66.854,617.312,68.255,617.218,71.189z"/>
	<path fill="#6E9C40" d="M626.017,71.126c-1.147-1.181-1.562-2.456-1.562-3.381c0-2.231,1.339-3.954,5.262-3.954
		c3.571,0,3.923,1.212,3.923,2.009c0,0.543-0.255,1.212-0.67,1.689c-0.893-0.478-1.786-0.669-2.774-0.669
		c-1.021,0-1.53,0.351-1.53,0.988c0,0.351,0.097,0.732,0.957,1.596l2.358,2.392c1.275,1.466,1.596,2.392,1.596,3.986
		c0,2.868-2.073,4.592-5.325,4.592c-2.073,0-3.764-0.447-3.764-1.882c0-0.512,0.159-1.213,0.574-1.979
		c0.894,0.479,1.882,0.701,2.807,0.701c1.116,0,1.658-0.542,1.658-1.371c0-0.445-0.098-1.052-0.733-1.785L626.017,71.126z"/>
</g>
</svg>
