<?xml version="1.0" encoding="utf-8"?>
<!-- Generator: Adobe Illustrator 15.0.2, SVG Export Plug-In . SVG Version: 6.00 Build 0)  -->
<!DOCTYPE svg PUBLIC "-//W3C//DTD SVG 1.1//EN" "http://www.w3.org/Graphics/SVG/1.1/DTD/svg11.dtd">
<svg version="1.1" id="Layer_2" xmlns="http://www.w3.org/2000/svg" xmlns:xlink="http://www.w3.org/1999/xlink" x="0px" y="0px"
	 width="648px" height="108px" viewBox="0 0 648 108" enable-background="new 0 0 648 108" xml:space="preserve">
<rect x="627.286" y="25.325" fill="#58595B" width="1.154" height="1.105"/>
<path fill="#58595B" d="M634.478,33.407c-0.516,0.538-1.104,0.834-1.762,0.894v-1.024c0.499-0.114,0.895-0.342,1.189-0.683
	c0.291-0.341,0.437-0.82,0.437-1.434c0-0.751-0.269-1.356-0.807-1.816c-0.536-0.465-1.36-0.694-2.473-0.694
	c-0.907,0-1.644,0.207-2.209,0.625c-0.567,0.416-0.851,1.038-0.851,1.865c0,0.76,0.3,1.341,0.893,1.737
	c0.314,0.211,0.727,0.369,1.237,0.474v1.022c-0.817-0.09-1.501-0.389-2.054-0.898c-0.665-0.607-0.998-1.432-0.998-2.462
	c0-0.891,0.273-1.64,0.818-2.247c0.721-0.795,1.837-1.194,3.344-1.194c1.147,0,2.086,0.301,2.817,0.898
	c0.798,0.647,1.194,1.541,1.194,2.677C635.255,32.12,634.996,32.873,634.478,33.407"/>
<path fill="#58595B" d="M633.935,42.124c-0.685,0.515-1.563,0.772-2.635,0.772c-1.157,0-2.12-0.292-2.889-0.881
	c-0.901-0.69-1.354-1.676-1.354-2.952c0-1.195,0.396-2.134,1.184-2.815c0.762-0.609,1.725-0.916,2.885-0.916
	c1.049,0,1.948,0.263,2.693,0.782c0.957,0.67,1.436,1.66,1.436,2.969C635.255,40.454,634.816,41.468,633.935,42.124 M628.991,41.198
	c0.663,0.416,1.428,0.621,2.29,0.621c0.914,0,1.646-0.238,2.204-0.716s0.834-1.128,0.834-1.957c0-0.802-0.275-1.456-0.825-1.965
	c-0.552-0.506-1.366-0.758-2.44-0.758c-0.859,0-1.584,0.216-2.175,0.651c-0.588,0.436-0.886,1.141-0.886,2.113
	C627.993,40.116,628.325,40.785,628.991,41.198"/>
<path fill="#58595B" d="M635.044,44.215v1.506l-6.558,2.229l6.558,2.214v1.496h-7.759v-1.003h4.581c0.157,0,0.418,0.003,0.786,0.011
	c0.367,0.007,0.759,0.009,1.178,0.009l-6.545-2.213v-1.042l6.545-2.236h-0.237c-0.192,0-0.481,0.007-0.869,0.018
	c-0.389,0.009-0.674,0.013-0.857,0.013h-4.581v-1.001H635.044z"/>
<path fill="#231F20" d="M251.351,28.958c1.589,1.536,2.471,3.28,2.646,5.235h-3.039c-0.339-1.483-1.014-2.662-2.024-3.53
	c-1.009-0.868-2.429-1.298-4.256-1.298c-2.224,0-4.022,0.795-5.392,2.391c-1.368,1.594-2.055,4.037-2.055,7.329
	c0,2.701,0.621,4.886,1.857,6.565c1.236,1.678,3.082,2.518,5.532,2.518c2.259,0,3.976-0.886,5.157-2.65
	c0.625-0.93,1.094-2.152,1.399-3.665h3.039c-0.269,2.421-1.156,4.452-2.663,6.094c-1.807,1.976-4.246,2.959-7.311,2.959
	c-2.642,0-4.863-0.808-6.658-2.429c-2.365-2.143-3.551-5.449-3.551-9.922c0-3.4,0.889-6.184,2.665-8.359
	c1.922-2.361,4.569-3.545,7.945-3.545C247.524,26.651,249.759,27.422,251.351,28.958"/>
<path fill="#231F20" d="M261.229,27.28v14.228c0,1.671,0.317,3.061,0.949,4.166c0.936,1.673,2.517,2.509,4.739,2.509
	c2.664,0,4.474-0.902,5.433-2.71c0.515-0.982,0.771-2.305,0.771-3.965V27.28h3.152v12.928c0,2.829-0.383,5.007-1.148,6.532
	c-1.405,2.78-4.059,4.167-7.957,4.167c-3.898,0-6.545-1.387-7.939-4.167c-0.767-1.524-1.147-3.703-1.147-6.532V27.28H261.229z"/>
<path fill="#231F20" d="M281.343,27.28h10.298c2.037,0,3.678,0.576,4.933,1.731c1.251,1.154,1.878,2.777,1.878,4.867
	c0,1.794-0.561,3.359-1.675,4.691c-1.117,1.332-2.828,1.997-5.131,1.997h-7.185v9.733h-3.117V27.28z M293.433,30.443
	c-0.679-0.322-1.622-0.482-2.811-0.482h-6.162v7.973h6.162c1.385,0,2.517-0.298,3.381-0.891c0.864-0.596,1.3-1.647,1.3-3.151
	C295.303,32.199,294.68,31.052,293.433,30.443"/>
<path fill="#231F20" d="M301.927,27.28h9.95c2.712,0,4.644,0.803,5.788,2.412c0.673,0.952,1.009,2.047,1.009,3.292
	c0,1.451-0.41,2.641-1.233,3.572c-0.431,0.491-1.046,0.939-1.85,1.345c1.182,0.452,2.062,0.959,2.646,1.524
	c1.034,1,1.554,2.383,1.554,4.15c0,1.483-0.469,2.825-1.404,4.027c-1.399,1.796-3.621,2.697-6.669,2.697h-9.79V27.28z M310.71,37.01
	c1.332,0,2.365-0.184,3.105-0.549c1.164-0.576,1.743-1.608,1.743-3.102c0-1.505-0.618-2.518-1.852-3.041
	c-0.696-0.292-1.732-0.437-3.103-0.437h-5.624v7.128H310.71z M311.768,47.636c1.928,0,3.303-0.556,4.127-1.661
	c0.516-0.701,0.774-1.544,0.774-2.538c0-1.673-0.751-2.811-2.259-3.417c-0.805-0.324-1.863-0.489-3.182-0.489h-6.248v8.104H311.768z
	"/>
<path fill="#231F20" d="M342.525,30.569c1.523,2.038,2.29,4.646,2.29,7.82c0,3.437-0.871,6.293-2.617,8.571
	c-2.047,2.673-4.967,4.01-8.761,4.01c-3.541,0-6.322-1.169-8.349-3.512c-1.809-2.255-2.715-5.106-2.715-8.554
	c0-3.111,0.775-5.775,2.323-7.99c1.985-2.841,4.919-4.263,8.804-4.263C337.565,26.651,340.57,27.958,342.525,30.569 M339.773,45.242
	c1.231-1.972,1.842-4.238,1.842-6.799c0-2.708-0.704-4.887-2.12-6.538c-1.415-1.653-3.351-2.477-5.805-2.477
	c-2.385,0-4.325,0.818-5.83,2.452c-1.503,1.639-2.257,4.047-2.257,7.237c0,2.552,0.646,4.701,1.937,6.449
	c1.292,1.753,3.38,2.634,6.274,2.634C336.562,48.2,338.552,47.213,339.773,45.242"/>
<path fill="#231F20" d="M354.334,27.28h3.519l8.355,23.019h-3.416l-2.404-6.897h-9.026l-2.497,6.897h-3.198L354.334,27.28z
	 M359.502,40.865l-3.543-10.17l-3.678,10.17H359.502z"/>
<path fill="#231F20" d="M369.331,27.28h10.461c1.722,0,3.142,0.258,4.261,0.768c2.126,0.983,3.186,2.793,3.186,5.436
	c0,1.378-0.284,2.506-0.855,3.384c-0.567,0.877-1.363,1.585-2.387,2.118c0.897,0.364,1.573,0.846,2.026,1.439
	c0.458,0.595,0.71,1.562,0.762,2.898l0.109,3.088c0.033,0.876,0.103,1.53,0.218,1.957c0.188,0.731,0.523,1.202,1.004,1.408v0.522
	h-3.822c-0.107-0.199-0.19-0.459-0.25-0.771c-0.066-0.313-0.117-0.92-0.159-1.818l-0.187-3.837c-0.072-1.505-0.612-2.513-1.63-3.025
	c-0.578-0.282-1.485-0.423-2.723-0.423h-6.898v9.874h-3.115V27.28z M379.456,37.826c1.425,0,2.548-0.292,3.374-0.877
	c0.83-0.586,1.242-1.642,1.242-3.166c0-1.64-0.579-2.757-1.736-3.351c-0.62-0.314-1.445-0.473-2.482-0.473h-7.407v7.867H379.456z"/>
<path fill="#231F20" d="M392.157,27.28h9.197c3.126,0,5.548,1.123,7.27,3.37c1.534,2.026,2.303,4.619,2.303,7.786
	c0,2.443-0.455,4.655-1.36,6.63c-1.599,3.488-4.346,5.233-8.241,5.233h-9.168V27.28z M400.746,47.636
	c1.027,0,1.879-0.113,2.542-0.332c1.184-0.406,2.153-1.191,2.911-2.35c0.6-0.928,1.037-2.12,1.301-3.574
	c0.153-0.866,0.229-1.67,0.229-2.412c0-2.852-0.556-5.066-1.661-6.643c-1.106-1.579-2.894-2.365-5.355-2.365h-5.407v17.675H400.746z
	"/>
<path fill="#231F20" d="M434.247,34.411c-0.367-1.578-1.261-2.682-2.682-3.309c-0.794-0.343-1.672-0.517-2.646-0.517
	c-1.86,0-3.389,0.702-4.583,2.105c-1.195,1.402-1.795,3.509-1.795,6.324c0,2.839,0.648,4.843,1.941,6.022
	c1.296,1.179,2.769,1.765,4.42,1.765c1.618,0,2.947-0.462,3.981-1.392c1.032-0.93,1.667-2.147,1.913-3.653h-5.344V37.9h9.621v12.398
	h-3.199l-0.486-2.882c-0.93,1.088-1.766,1.859-2.505,2.307c-1.276,0.779-2.844,1.171-4.701,1.171c-3.062,0-5.566-1.062-7.521-3.179
	c-2.039-2.132-3.056-5.043-3.056-8.739c0-3.736,1.03-6.733,3.087-8.989c2.056-2.252,4.78-3.38,8.164-3.38
	c2.936,0,5.291,0.743,7.073,2.231c1.78,1.49,2.801,3.347,3.062,5.573H434.247z"/>
<polygon fill="#231F20" points="443.967,27.202 448.792,27.202 448.792,46.144 460.326,46.144 460.326,50.299 443.967,50.299 "/>
<path fill="#231F20" d="M471.033,27.202h5.457l8.171,23.098h-5.231l-1.528-4.75H469.4l-1.566,4.75h-5.049L471.033,27.202z
	 M470.713,41.569h5.916l-2.921-9.088L470.713,41.569z"/>
<path fill="#231F20" d="M490.943,43.167c0.148,1.054,0.442,1.846,0.88,2.366c0.802,0.952,2.17,1.427,4.111,1.427
	c1.161,0,2.106-0.127,2.833-0.377c1.375-0.481,2.062-1.373,2.062-2.68c0-0.76-0.336-1.352-1.01-1.77
	c-0.677-0.408-1.742-0.767-3.208-1.079l-2.501-0.549c-2.46-0.548-4.145-1.134-5.063-1.771c-1.559-1.063-2.335-2.734-2.335-4.999
	c0-2.068,0.761-3.786,2.286-5.155c1.519-1.367,3.759-2.055,6.708-2.055c2.463,0,4.563,0.646,6.305,1.937
	c1.737,1.29,2.649,3.162,2.735,5.616h-4.639c-0.083-1.387-0.706-2.374-1.863-2.96c-0.77-0.385-1.728-0.582-2.873-0.582
	c-1.276,0-2.289,0.251-3.056,0.752c-0.759,0.502-1.138,1.204-1.138,2.102c0,0.825,0.372,1.442,1.125,1.85
	c0.482,0.27,1.504,0.59,3.068,0.958l4.053,0.952c1.776,0.418,3.105,0.977,3.994,1.678c1.376,1.086,2.066,2.656,2.066,4.714
	c0,2.11-0.818,3.864-2.449,5.258c-1.628,1.394-3.935,2.094-6.911,2.094c-3.042,0-5.432-0.691-7.173-2.063
	c-1.747-1.374-2.614-3.263-2.614-5.665H490.943z"/>
<path fill="#231F20" d="M512.879,43.167c0.151,1.054,0.444,1.846,0.882,2.366c0.799,0.952,2.169,1.427,4.109,1.427
	c1.161,0,2.106-0.127,2.833-0.377c1.376-0.481,2.062-1.373,2.062-2.68c0-0.76-0.34-1.352-1.008-1.77
	c-0.678-0.408-1.746-0.767-3.209-1.079l-2.5-0.549c-2.457-0.548-4.146-1.134-5.062-1.771c-1.558-1.063-2.336-2.734-2.336-4.999
	c0-2.068,0.762-3.786,2.283-5.155c1.522-1.367,3.759-2.055,6.708-2.055c2.465,0,4.565,0.646,6.307,1.937
	c1.737,1.29,2.65,3.162,2.735,5.616h-4.638c-0.086-1.387-0.71-2.374-1.865-2.96c-0.769-0.385-1.729-0.582-2.875-0.582
	c-1.273,0-2.288,0.251-3.053,0.752c-0.759,0.502-1.139,1.204-1.139,2.102c0,0.825,0.376,1.442,1.125,1.85
	c0.483,0.27,1.503,0.59,3.066,0.958l4.054,0.952c1.777,0.418,3.109,0.977,3.996,1.678c1.377,1.086,2.064,2.656,2.064,4.714
	c0,2.11-0.815,3.864-2.445,5.258c-1.634,1.394-3.937,2.094-6.912,2.094c-3.042,0-5.432-0.691-7.177-2.063
	c-1.744-1.374-2.611-3.263-2.611-5.665H512.879z"/>
<path fill="#231F20" d="M534.241,27.28h10.299c2.038,0,3.683,0.578,4.935,1.731c1.251,1.154,1.877,2.777,1.877,4.867
	c0,1.794-0.559,3.359-1.676,4.691c-1.117,1.332-2.826,1.997-5.127,1.997h-7.189v9.733h-3.118V27.28z M546.338,30.443
	c-0.687-0.322-1.627-0.482-2.816-0.482h-6.162v7.973h6.162c1.389,0,2.519-0.298,3.383-0.891c0.863-0.596,1.3-1.647,1.3-3.151
	C548.204,32.199,547.581,31.052,546.338,30.443"/>
<rect x="555.206" y="27.279" fill="#231F20" width="3.147" height="23.019"/>
<path fill="#231F20" d="M563.639,27.28h10.298c2.039,0,3.68,0.578,4.935,1.731c1.252,1.154,1.878,2.777,1.878,4.867
	c0,1.794-0.559,3.359-1.675,4.691c-1.115,1.332-2.826,1.997-5.128,1.997h-7.187v9.733h-3.121V27.28z M575.734,30.443
	c-0.686-0.322-1.628-0.482-2.813-0.482h-6.161v7.973h6.161c1.388,0,2.515-0.298,3.383-0.891c0.863-0.596,1.299-1.647,1.299-3.151
	C577.603,32.199,576.978,31.052,575.734,30.443"/>
<polygon fill="#231F20" points="584.408,27.28 601.11,27.28 601.11,30.1 587.448,30.1 587.448,37.088 600.077,37.088 600.077,39.75 
	587.448,39.75 587.448,47.555 601.345,47.555 601.345,50.299 584.408,50.299 "/>
<path fill="#231F20" d="M606.948,42.872c0.067,1.305,0.368,2.363,0.89,3.178c0.997,1.524,2.751,2.288,5.27,2.288
	c1.125,0,2.149-0.166,3.079-0.501c1.79-0.647,2.687-1.807,2.687-3.478c0-1.254-0.38-2.146-1.138-2.678
	c-0.771-0.522-1.976-0.978-3.617-1.366l-3.018-0.703c-1.974-0.46-3.37-0.967-4.187-1.522c-1.417-0.962-2.128-2.396-2.128-4.307
	c0-2.069,0.696-3.769,2.088-5.094c1.394-1.326,3.363-1.989,5.918-1.989c2.348,0,4.344,0.582,5.983,1.747
	c1.64,1.167,2.462,3.028,2.462,5.587h-2.928c-0.15-1.233-0.471-2.179-0.963-2.84c-0.91-1.2-2.46-1.799-4.641-1.799
	c-1.769,0-3.033,0.387-3.803,1.16c-0.771,0.773-1.155,1.673-1.155,2.697c0,1.126,0.455,1.952,1.365,2.475
	c0.599,0.333,1.95,0.753,4.052,1.254l3.126,0.736c1.512,0.353,2.675,0.84,3.492,1.457c1.419,1.076,2.128,2.635,2.128,4.683
	c0,2.552-0.903,4.373-2.71,5.471c-1.812,1.095-3.91,1.642-6.306,1.642c-2.79,0-4.977-0.731-6.553-2.194
	c-1.582-1.449-2.355-3.417-2.323-5.904H606.948z"/>
<path fill="#5B8C3E" d="M239.359,76.91c0,0.52,0.041,0.997,0.125,1.429c0.084,0.428,0.24,0.787,0.473,1.084
	c0.229,0.291,0.538,0.521,0.925,0.69c0.387,0.17,0.874,0.252,1.46,0.252c0.691,0,1.313-0.228,1.87-0.677
	c0.556-0.448,0.834-1.146,0.834-2.088c0-0.503-0.069-0.937-0.204-1.304c-0.139-0.367-0.364-0.697-0.678-0.989
	c-0.313-0.291-0.728-0.562-1.241-0.804c-0.512-0.242-1.145-0.485-1.902-0.736c-1.002-0.335-1.873-0.7-2.604-1.102
	c-0.736-0.396-1.349-0.863-1.837-1.395c-0.493-0.538-0.857-1.152-1.085-1.856c-0.229-0.699-0.346-1.512-0.346-2.434
	c0-2.221,0.62-3.873,1.854-4.963c1.234-1.092,2.931-1.635,5.09-1.635c1.003,0,1.929,0.109,2.78,0.329
	c0.847,0.222,1.58,0.578,2.201,1.068c0.613,0.492,1.095,1.121,1.442,1.887c0.346,0.763,0.518,1.679,0.518,2.748v0.629h-4.336
	c0-1.069-0.189-1.889-0.565-2.467c-0.376-0.573-1.004-0.862-1.882-0.862c-0.502,0-0.924,0.072-1.258,0.221
	c-0.335,0.145-0.604,0.338-0.802,0.578c-0.199,0.243-0.335,0.517-0.408,0.832c-0.074,0.316-0.112,0.642-0.112,0.974
	c0,0.692,0.148,1.274,0.442,1.745c0.292,0.47,0.92,0.907,1.885,1.303l3.485,1.508c0.86,0.378,1.562,0.77,2.106,1.18
	c0.546,0.41,0.979,0.847,1.305,1.317c0.323,0.473,0.55,0.99,0.675,1.556c0.125,0.566,0.19,1.195,0.19,1.887
	c0,2.364-0.688,4.089-2.061,5.166c-1.372,1.081-3.283,1.62-5.731,1.62c-2.555,0-4.384-0.556-5.483-1.665
	c-1.1-1.11-1.65-2.703-1.65-4.777v-0.91h4.524V76.91z"/>
<path fill="#5B8C3E" d="M256.2,66.353v1.728h0.062c0.543-0.772,1.157-1.329,1.834-1.664c0.684-0.332,1.495-0.503,2.438-0.503
	c1.003,0,1.848,0.23,2.53,0.691c0.679,0.461,1.134,1.132,1.366,2.012h0.062c0.334-0.899,0.874-1.575,1.618-2.028
	c0.744-0.45,1.628-0.675,2.653-0.675c1.445,0,2.507,0.437,3.188,1.304c0.681,0.87,1.021,2.12,1.021,3.755v12.28h-4.333V71.441
	c0-0.711-0.132-1.257-0.394-1.631c-0.261-0.379-0.697-0.566-1.306-0.566c-0.688,0-1.24,0.231-1.646,0.689
	c-0.411,0.462-0.615,1.194-0.615,2.198v11.12h-4.333V71.441c0-0.711-0.132-1.257-0.393-1.631c-0.264-0.379-0.697-0.566-1.307-0.566
	c-0.691,0-1.24,0.231-1.647,0.689c-0.41,0.462-0.613,1.194-0.613,2.198v11.12h-4.336V66.353H256.2z"/>
<path fill="#5B8C3E" d="M275.801,70.972c0.229-1.111,0.607-2.038,1.132-2.78c0.523-0.743,1.21-1.312,2.058-1.697
	c0.847-0.387,1.889-0.581,3.125-0.581c1.296-0.021,2.378,0.153,3.234,0.518c0.86,0.367,1.54,0.927,2.042,1.683
	c0.503,0.755,0.86,1.687,1.07,2.793c0.208,1.111,0.312,2.409,0.312,3.897c0,1.445-0.113,2.726-0.346,3.835
	c-0.229,1.108-0.607,2.034-1.128,2.777c-0.524,0.747-1.211,1.293-2.058,1.649c-0.848,0.356-1.889,0.536-3.126,0.536
	c-1.297,0.021-2.379-0.145-3.237-0.488c-0.856-0.348-1.539-0.888-2.042-1.635c-0.5-0.742-0.855-1.673-1.066-2.795
	c-0.211-1.12-0.313-2.413-0.313-3.88C275.458,73.357,275.573,72.083,275.801,70.972 M279.854,77.192
	c0.041,0.733,0.139,1.362,0.297,1.883c0.158,0.524,0.396,0.934,0.708,1.228c0.314,0.293,0.732,0.439,1.257,0.439
	c0.879,0,1.486-0.461,1.822-1.383c0.335-0.922,0.501-2.439,0.501-4.556c0-2.113-0.167-3.634-0.501-4.557
	c-0.336-0.918-0.943-1.379-1.822-1.379c-0.525,0-0.943,0.145-1.257,0.437c-0.312,0.297-0.55,0.704-0.708,1.227
	c-0.158,0.523-0.256,1.15-0.297,1.884s-0.063,1.53-0.063,2.389S279.813,76.459,279.854,77.192"/>
<polygon fill="#5B8C3E" points="295.75,72.666 295.813,72.666 300.182,66.353 304.955,66.353 300.086,73.014 305.677,83.254 
	300.903,83.254 297.291,76.312 295.75,78.32 295.75,83.254 291.415,83.254 291.415,60.824 295.75,60.824 "/>
<path fill="#5B8C3E" d="M311.615,64.278h-4.334v-3.707h4.334V64.278z M311.615,83.252h-4.334V66.353h4.334V83.252z"/>
<path fill="#5B8C3E" d="M318.965,66.353v1.979h0.062c0.462-0.838,1.061-1.449,1.793-1.837c0.73-0.39,1.574-0.581,2.514-0.581
	c1.381,0,2.444,0.378,3.188,1.132c0.745,0.754,1.117,1.979,1.117,3.676v12.531h-4.337V71.598c0-0.877-0.147-1.49-0.44-1.835
	c-0.292-0.348-0.763-0.519-1.413-0.519c-1.53,0-2.292,0.932-2.292,2.797v11.211h-4.336V66.353H318.965z"/>
<path fill="#5B8C3E" d="M335.224,67.215c-0.113,0.704-0.329,1.312-0.643,1.823c-0.314,0.517-0.739,0.931-1.273,1.257
	c-0.531,0.327-1.22,0.53-2.058,0.614v-2.2c0.547-0.104,0.954-0.397,1.224-0.88c0.275-0.482,0.41-1.017,0.41-1.604v-0.503h-1.634
	v-4.898h4.147v4.083C335.397,65.745,335.341,66.516,335.224,67.215"/>
<path fill="#5B8C3E" d="M355.648,66.194c-0.098-0.438-0.25-0.839-0.456-1.209c-0.21-0.365-0.477-0.67-0.805-0.91
	c-0.321-0.24-0.716-0.36-1.176-0.36c-1.087,0-1.874,0.605-2.358,1.821c-0.479,1.212-0.719,3.225-0.719,6.032
	c0,1.34,0.041,2.556,0.126,3.642c0.079,1.092,0.232,2.017,0.454,2.784c0.22,0.764,0.532,1.35,0.943,1.756
	c0.408,0.409,0.937,0.615,1.587,0.615c0.271,0,0.568-0.073,0.893-0.222c0.326-0.145,0.628-0.365,0.912-0.66
	c0.283-0.291,0.52-0.666,0.705-1.115c0.191-0.448,0.286-0.975,0.286-1.584v-2.295h-2.985V71.16h7.321v12.092h-3.331v-2.069h-0.062
	c-0.548,0.877-1.2,1.501-1.967,1.866c-0.763,0.367-1.679,0.553-2.748,0.553c-1.381,0-2.507-0.241-3.376-0.723
	c-0.868-0.48-1.551-1.228-2.042-2.232c-0.489-1.005-0.822-2.246-0.99-3.723c-0.168-1.475-0.252-3.189-0.252-5.135
	c0-1.888,0.12-3.541,0.362-4.964c0.241-1.424,0.652-2.614,1.244-3.565c0.582-0.955,1.358-1.671,2.322-2.154
	c0.962-0.48,2.167-0.722,3.613-0.722c2.471,0,4.249,0.613,5.339,1.839c1.085,1.225,1.635,2.979,1.635,5.262h-4.337
	C355.787,67.062,355.741,66.636,355.648,66.194"/>
<rect x="363.485" y="60.824" fill="#5B8C3E" width="4.334" height="22.428"/>
<path fill="#5B8C3E" d="M370.993,71.128c0-0.985,0.16-1.805,0.471-2.464c0.314-0.662,0.74-1.196,1.274-1.604
	c0.53-0.408,1.163-0.701,1.881-0.879c0.727-0.178,1.494-0.268,2.313-0.268c1.299,0,2.341,0.126,3.14,0.378
	c0.794,0.251,1.416,0.605,1.855,1.068c0.438,0.46,0.736,1.01,0.894,1.648c0.156,0.639,0.235,1.334,0.235,2.09v8.889
	c0,0.798,0.035,1.415,0.109,1.855c0.073,0.439,0.214,0.913,0.425,1.41h-4.146c-0.145-0.27-0.258-0.555-0.329-0.86
	c-0.074-0.304-0.143-0.601-0.206-0.897h-0.062c-0.504,0.883-1.082,1.454-1.744,1.715c-0.661,0.261-1.513,0.393-2.56,0.393
	c-0.756,0-1.396-0.132-1.916-0.393c-0.524-0.261-0.942-0.624-1.258-1.083c-0.316-0.461-0.545-0.982-0.69-1.558
	c-0.146-0.576-0.221-1.146-0.221-1.711c0-0.797,0.08-1.482,0.251-2.059c0.169-0.577,0.423-1.067,0.771-1.478
	c0.345-0.406,0.784-0.748,1.317-1.02c0.535-0.271,1.18-0.513,1.935-0.726l2.451-0.655c0.646-0.17,1.096-0.401,1.347-0.691
	c0.253-0.294,0.379-0.725,0.379-1.287c0-0.651-0.151-1.158-0.454-1.527c-0.305-0.364-0.823-0.547-1.558-0.547
	c-0.669,0-1.172,0.198-1.506,0.595c-0.334,0.398-0.501,0.933-0.501,1.602v0.471h-3.897V71.128z M377.97,75.354
	c-0.338,0.138-0.643,0.236-0.91,0.299c-0.882,0.188-1.512,0.502-1.888,0.941c-0.379,0.438-0.567,1.034-0.567,1.792
	c0,0.648,0.128,1.204,0.379,1.663c0.253,0.462,0.667,0.692,1.257,0.692c0.294,0,0.596-0.046,0.91-0.144
	c0.313-0.093,0.603-0.242,0.864-0.455c0.263-0.209,0.477-0.479,0.643-0.815s0.252-0.732,0.252-1.194v-3.329
	C378.617,75.033,378.303,75.22,377.97,75.354"/>
<path fill="#5B8C3E" d="M389.465,78.291c0,0.733,0.193,1.323,0.582,1.774c0.389,0.452,0.947,0.677,1.681,0.677
	c0.668,0,1.205-0.167,1.603-0.503c0.396-0.335,0.599-0.838,0.599-1.508c0-0.545-0.159-0.958-0.473-1.239
	c-0.312-0.285-0.682-0.51-1.102-0.677l-3.046-1.103c-1.194-0.415-2.095-1.009-2.701-1.773c-0.608-0.765-0.912-1.743-0.912-2.935
	c0-0.694,0.115-1.347,0.346-1.967c0.23-0.616,0.597-1.156,1.1-1.615c0.506-0.462,1.148-0.828,1.932-1.103
	c0.785-0.27,1.734-0.408,2.845-0.408c1.968,0,3.423,0.423,4.366,1.258c0.942,0.839,1.413,2.021,1.413,3.551v0.689H393.8
	c0-0.879-0.141-1.521-0.424-1.932c-0.281-0.407-0.779-0.61-1.492-0.61c-0.543,0-1.018,0.151-1.428,0.455
	c-0.409,0.302-0.615,0.76-0.615,1.366c0,0.42,0.133,0.797,0.396,1.129c0.26,0.338,0.758,0.62,1.491,0.85l2.611,0.879
	c1.357,0.462,2.321,1.065,2.887,1.806c0.565,0.744,0.848,1.756,0.848,3.034c0,0.897-0.158,1.679-0.473,2.339
	c-0.313,0.661-0.745,1.208-1.302,1.65c-0.553,0.44-1.214,0.754-1.982,0.941c-0.762,0.188-1.606,0.284-2.525,0.284
	c-1.215,0-2.226-0.116-3.032-0.348c-0.81-0.23-1.444-0.574-1.918-1.036c-0.469-0.458-0.8-1.021-0.989-1.681
	c-0.185-0.659-0.284-1.396-0.284-2.217v-0.595h3.897V78.291z"/>
<path fill="#5B8C3E" d="M403.572,78.291c0,0.733,0.194,1.323,0.58,1.774c0.386,0.452,0.947,0.677,1.681,0.677
	c0.668,0,1.205-0.167,1.604-0.503c0.396-0.335,0.598-0.838,0.598-1.508c0-0.545-0.159-0.958-0.475-1.239
	c-0.313-0.285-0.682-0.51-1.1-0.677l-3.047-1.103c-1.19-0.415-2.094-1.009-2.703-1.773c-0.604-0.765-0.908-1.743-0.908-2.935
	c0-0.694,0.114-1.347,0.344-1.967c0.231-0.616,0.599-1.156,1.102-1.615c0.502-0.462,1.146-0.828,1.931-1.103
	c0.786-0.27,1.732-0.408,2.846-0.408c1.966,0,3.42,0.423,4.364,1.258c0.942,0.839,1.414,2.021,1.414,3.551v0.689h-3.896
	c0-0.879-0.142-1.521-0.423-1.932c-0.284-0.407-0.778-0.61-1.491-0.61c-0.547,0-1.022,0.151-1.43,0.455
	c-0.41,0.302-0.615,0.76-0.615,1.366c0,0.42,0.131,0.797,0.39,1.129c0.264,0.338,0.763,0.62,1.496,0.85l2.607,0.879
	c1.362,0.462,2.326,1.065,2.89,1.806c0.567,0.744,0.849,1.756,0.849,3.034c0,0.897-0.155,1.679-0.471,2.339
	c-0.313,0.661-0.748,1.208-1.306,1.65c-0.552,0.44-1.212,0.754-1.977,0.941s-1.609,0.284-2.528,0.284
	c-1.217,0-2.229-0.116-3.032-0.348c-0.807-0.23-1.447-0.574-1.917-1.036c-0.47-0.458-0.803-1.021-0.992-1.681
	c-0.188-0.659-0.283-1.396-0.283-2.217v-0.595h3.899V78.291z"/>
<path fill="#5B8C3E" d="M431.122,60.824l5.938,22.434h-4.714l-1.034-4.747h-5.969l-1.039,4.747h-4.713l5.939-22.434H431.122z
	 M430.528,74.805l-2.171-10.086h-0.062l-2.169,10.086H430.528z"/>
<path fill="#5B8C3E" d="M442.808,66.353v2.264h0.063c0.441-0.817,0.974-1.474,1.604-1.965c0.627-0.489,1.391-0.738,2.293-0.738
	c0.126,0,0.255,0.006,0.389,0.015c0.14,0.011,0.271,0.026,0.396,0.048v4.146c-0.23-0.019-0.456-0.034-0.677-0.046
	c-0.218-0.011-0.445-0.017-0.673-0.017c-0.377,0-0.756,0.054-1.133,0.158c-0.376,0.104-0.721,0.278-1.034,0.516
	c-0.314,0.244-0.565,0.559-0.757,0.945c-0.187,0.388-0.282,0.865-0.282,1.431v10.146h-4.335V66.353H442.808z"/>
<path fill="#5B8C3E" d="M454.558,61.516v4.836h2.516v2.953h-2.516v9.145c0,0.67,0.102,1.145,0.301,1.429
	c0.196,0.281,0.61,0.425,1.238,0.425c0.167,0,0.338-0.006,0.5-0.019c0.171-0.008,0.329-0.025,0.477-0.045v3.017
	c-0.485,0-0.95,0.016-1.399,0.046c-0.45,0.032-0.926,0.048-1.431,0.048c-0.837,0-1.523-0.06-2.059-0.174
	c-0.534-0.114-0.942-0.344-1.224-0.691c-0.282-0.345-0.478-0.799-0.58-1.364c-0.105-0.568-0.157-1.278-0.157-2.138v-9.678h-2.196
	v-2.953h2.196v-4.836H454.558z"/>
<path fill="#231F20" d="M210.036,20.59c-4.828-3.669-11.185-5.526-18.886-5.526h-21.002v38.081c-0.917-0.411-1.89-0.885-2.956-1.439
	c-6.134-3.194-10.399-10.832-11.527-13.505c-0.126-0.293-0.364-0.74-0.385-0.776l-1.122-2.055c-1.667-3.08-3.732-5.908-6.138-8.413
	c-2.406-2.501-5.107-4.661-8.021-6.423c-2.918-1.763-6.092-3.13-9.438-4.066c-3.338-0.93-6.82-1.402-10.348-1.402
	c-5.199,0-10.275,1.042-15.092,3.095c-4.679,1.987-8.809,4.753-12.282,8.223c-1.733,1.8-3.309,3.729-4.684,5.742
	c-1.383,2.027-2.572,4.228-3.533,6.537c-1.993,4.621-3,9.665-3,14.993c0,1.131,0.075,2.288,0.146,3.406
	c0.17,2.613,0.348,5.317-0.452,7.846c-1.19,3.769-3.738,7.179-5.652,9.359l-1.79,1.881c-2.808,2.765-6.044,4.909-9.616,6.376
	c-3.764,1.541-7.777,2.32-11.935,2.32c-4.271,0-8.358-0.826-12.148-2.453c-3.806-1.637-7.14-3.891-9.922-6.701
	c-2.79-2.819-5.033-6.163-6.667-9.938c-0.608-1.413-1.113-2.88-1.496-4.363l-0.053-0.207c-0.345-1.38-0.594-2.814-0.738-4.26
	c-0.11-1.068-0.166-2.163-0.166-3.265c0-4.269,0.826-8.355,2.456-12.146c1.633-3.802,3.871-7.142,6.656-9.928
	c2.79-2.785,6.127-5.024,9.93-6.656c3.787-1.631,7.875-2.458,12.148-2.458c4.153,0,8.166,0.783,11.932,2.324
	c3.759,1.542,7.136,3.822,10.036,6.782l0.957,0.978l5.332-5.188l-0.983-0.982c-3.653-3.654-7.79-6.452-12.286-8.317
	c-4.623-1.989-9.665-2.997-14.987-2.997c-5.262,0-10.336,1.007-15.091,3c-4.614,1.986-8.715,4.784-12.176,8.305
	c-3.601,3.473-6.402,7.611-8.327,12.296c-1.989,4.62-3,9.662-3,14.988c0,1.16,0.052,2.345,0.15,3.519
	c0.142,1.644,0.388,3.272,0.731,4.847c0.5,2.287,1.212,4.522,2.119,6.629c1.859,4.488,4.656,8.62,8.308,12.274
	c1.731,1.796,3.659,3.395,5.729,4.757c2.06,1.351,4.222,2.542,6.442,3.557l0.047,0.021c9.88,3.968,20.293,3.965,30.044-0.01
	c4.503-1.861,8.638-4.663,12.314-8.337l3.003-3.315l0.041-0.051c1.336-1.694,2.542-3.535,3.586-5.484
	c1.042,1.941,2.247,3.78,3.588,5.484c0.933,1.185,1.946,2.326,3.008,3.385c3.593,3.593,7.725,6.392,12.289,8.318
	c4.883,1.988,9.953,2.997,15.081,2.997c4.483,0,9.033-0.812,13.522-2.409l0.054-0.021c2.031-0.826,4.036-1.812,5.958-2.934
	c1.923-1.119,3.749-2.439,5.419-3.917c3.462-2.885,6.342-6.336,8.562-10.257c1.894-3.355,3.282-6.946,4.12-10.678
	c0.146-0.669,0.274-1.303,0.376-1.894l0.733-4.398h-40.86v7.405h31.736c-0.882,2.79-2.115,5.404-3.669,7.766
	c-1.862,2.843-4.143,5.321-6.783,7.363c-2.645,2.055-5.637,3.677-8.897,4.828c-3.259,1.159-6.711,1.743-10.271,1.743
	c-4.266,0-8.354-0.826-12.149-2.453c-3.772-1.621-7.095-3.862-9.858-6.635c-0.021-0.027-0.04-0.048-0.064-0.069
	c-2.787-2.816-5.03-6.158-6.666-9.936c-0.607-1.403-1.113-2.873-1.497-4.361c-0.369-1.455-0.636-2.956-0.789-4.469
	c-0.111-1.084-0.167-2.184-0.167-3.265c0-4.268,0.825-8.337,2.454-12.094c1.634-3.776,3.877-7.119,6.666-9.936
	c2.782-2.813,6.122-5.066,9.921-6.699c3.79-1.631,7.877-2.458,12.149-2.458c2.84,0,5.649,0.393,8.347,1.163
	c2.694,0.769,5.249,1.88,7.594,3.305c2.344,1.425,4.529,3.174,6.49,5.194c1.958,2.017,3.643,4.302,5.009,6.791l1.1,2.017
	c0.044,0.097,0.256,0.51,0.375,0.724c2.567,4.625,7.846,12.922,14.4,16.547c2.221,1.233,4.391,2.216,6.621,3v31.038h7.347V63.331
	h3.539c0.688,0.034,1.328,0.05,1.954,0.05l2.71-0.05h6.001c3.836,0,7.459-0.634,10.759-1.885c3.318-1.257,6.252-3.072,8.714-5.406
	c4.744-4.616,7.151-10.655,7.151-17.95C218.324,30.602,215.534,24.713,210.036,20.59 M210.979,38.09c0,5.238-1.661,9.5-4.93,12.657
	c-1.818,1.763-4.007,3.099-6.506,3.981c-2.378,0.836-5.029,1.261-7.886,1.261c-0.191,0-0.38,0-0.583-0.003l-5.423-0.003
	l-2.336-0.017h-0.188c-1.882,0-3.777-0.17-5.631-0.509V22.411h13.655c6.345,0,11.312,1.403,14.764,4.169
	C209.32,29.312,210.979,33.077,210.979,38.09"/>
<polygon fill="#5B8C3E" points="461.519,62.665 459.462,62.665 459.462,61.562 464.915,61.562 464.915,62.665 462.836,62.665 
	462.836,68.78 461.519,68.78 "/>
<path fill="#5B8C3E" d="M471.83,65.836c-0.044-0.932-0.097-2.058-0.085-3.031h-0.034c-0.234,0.879-0.535,1.853-0.856,2.764
	l-1.05,3.129h-1.016l-0.964-3.086c-0.278-0.923-0.537-1.908-0.729-2.807h-0.022c-0.031,0.942-0.073,2.089-0.129,3.073l-0.16,2.902
	h-1.231l0.481-7.22h1.736l0.943,2.903c0.256,0.848,0.481,1.705,0.663,2.509h0.032c0.193-0.784,0.439-1.674,0.718-2.518l0.996-2.895
	h1.714l0.417,7.22h-1.285L471.83,65.836z"/>
</svg>
